<svg xmlns="http://www.w3.org/2000/svg" xmlns:xlink="http://www.w3.org/1999/xlink" width="100" zoomAndPan="magnify" viewBox="0 0 75 74.999997" height="100" preserveAspectRatio="xMidYMid meet" version="1.0"><defs><clipPath id="c9fb5e0f01"><path d="M 5.761719 8.242188 L 69.511719 8.242188 L 69.511719 66.742188 L 5.761719 66.742188 Z M 5.761719 8.242188 " clip-rule="nonzero"/></clipPath></defs><path fill="#ffd42a" d="M 8.242188 59.527344 C 7.832031 60.3125 7.347656 61.046875 7.347656 61.910156 L 7.351562 62.269531 C 7.351562 64.128906 8.816406 65.25 10.496094 65.25 L 64.796875 65.25 C 66.476562 65.25 67.921875 63.859375 67.921875 62 L 67.90625 61.636719 C 67.90625 60.777344 67.480469 60.027344 67.015625 59.257812 L 40.121094 11.242188 C 38.933594 9.925781 37.007812 9.925781 35.820312 11.242188 L 8.242188 59.53125 Z M 8.242188 59.527344 " fill-opacity="1" fill-rule="nonzero"/><g clip-path="url(#c9fb5e0f01)"><path stroke-linecap="butt" transform="matrix(0.447574, 0, 0, 0.44551, 2.658037, 5.586922)" fill="none" stroke-linejoin="miter" d="M 12.476498 121.07573 C 11.560098 122.838107 10.477874 124.4865 10.477874 126.424238 L 10.486601 127.230898 C 10.486601 131.404488 13.759457 133.920917 17.512332 133.920917 L 138.834909 133.920917 C 142.587784 133.920917 145.817001 130.799493 145.817001 126.625903 L 145.782091 125.810475 C 145.782091 123.881505 144.830781 122.19804 143.792194 120.470735 L 83.702564 12.69392 C 81.049369 9.739089 76.746655 9.739089 74.09346 12.69392 L 12.476498 121.084498 Z M 12.476498 121.07573 " stroke="#000000" stroke-width="6.831" stroke-opacity="1" stroke-miterlimit="4"/></g><path fill="#000000" d="M 42.5625 54.730469 C 42.5625 55.011719 42.539062 55.292969 42.484375 55.566406 C 42.429688 55.84375 42.347656 56.109375 42.242188 56.371094 C 42.136719 56.628906 42.003906 56.878906 41.847656 57.113281 C 41.691406 57.347656 41.515625 57.5625 41.316406 57.761719 C 41.117188 57.960938 40.898438 58.136719 40.664062 58.296875 C 40.429688 58.453125 40.183594 58.582031 39.921875 58.691406 C 39.660156 58.800781 39.394531 58.878906 39.117188 58.9375 C 38.839844 58.992188 38.558594 59.019531 38.277344 59.019531 C 37.996094 59.019531 37.714844 58.992188 37.4375 58.9375 C 37.164062 58.878906 36.894531 58.800781 36.632812 58.691406 C 36.371094 58.582031 36.125 58.453125 35.890625 58.296875 C 35.65625 58.136719 35.441406 57.960938 35.242188 57.761719 C 35.042969 57.5625 34.863281 57.347656 34.707031 57.113281 C 34.550781 56.878906 34.421875 56.628906 34.3125 56.371094 C 34.207031 56.109375 34.125 55.84375 34.070312 55.566406 C 34.019531 55.292969 33.992188 55.011719 33.992188 54.730469 C 33.992188 54.453125 34.019531 54.171875 34.070312 53.898438 C 34.125 53.621094 34.207031 53.355469 34.3125 53.09375 C 34.421875 52.832031 34.550781 52.585938 34.707031 52.351562 C 34.863281 52.117188 35.042969 51.902344 35.242188 51.703125 C 35.441406 51.503906 35.65625 51.324219 35.890625 51.167969 C 36.125 51.011719 36.371094 50.878906 36.632812 50.773438 C 36.894531 50.664062 37.164062 50.582031 37.4375 50.527344 C 37.714844 50.472656 37.996094 50.445312 38.277344 50.445312 C 38.558594 50.445312 38.839844 50.472656 39.117188 50.527344 C 39.394531 50.582031 39.660156 50.664062 39.921875 50.773438 C 40.183594 50.878906 40.429688 51.011719 40.664062 51.167969 C 40.898438 51.324219 41.117188 51.503906 41.316406 51.703125 C 41.515625 51.902344 41.691406 52.117188 41.847656 52.351562 C 42.003906 52.585938 42.136719 52.832031 42.242188 53.09375 C 42.347656 53.355469 42.429688 53.621094 42.484375 53.898438 C 42.539062 54.171875 42.5625 54.453125 42.5625 54.730469 Z M 42.5625 54.730469 " fill-opacity="1" fill-rule="nonzero"/><path fill="#000000" d="M 38.25 25.101562 C 39.933594 25.101562 42.546875 26.4375 42.546875 28.09375 L 41.289062 45.328125 C 41.289062 46.988281 39.933594 48.320312 38.25 48.320312 C 36.566406 48.320312 35.210938 46.988281 35.210938 45.328125 L 33.746094 28.09375 C 33.746094 26.4375 36.566406 25.101562 38.25 25.101562 Z M 38.25 25.101562 " fill-opacity="1" fill-rule="nonzero"/></svg>