<svg xmlns="http://www.w3.org/2000/svg" xmlns:xlink="http://www.w3.org/1999/xlink" width="300" zoomAndPan="magnify" viewBox="0 0 224.87999 74.999997" height="100" preserveAspectRatio="xMidYMid meet" version="1.0"><defs><clipPath id="f3bf41c893"><path d="M 145.777344 21.011719 L 182.855469 21.011719 L 182.855469 53.988281 L 145.777344 53.988281 Z M 145.777344 21.011719 " clip-rule="nonzero"/></clipPath><clipPath id="d313974b93"><path d="M 186.691406 37.027344 L 196 37.027344 L 196 37.824219 L 186.691406 37.824219 Z M 186.691406 37.027344 " clip-rule="nonzero"/></clipPath></defs><path stroke-linecap="butt" transform="matrix(0.71128, 0, 0, 0.71128, 32.093038, 17.584169)" fill="none" stroke-linejoin="miter" d="M 37.894859 10.837933 C 37.894859 10.645718 37.95527 10.480962 38.087074 10.354649 C 38.224371 10.222844 38.389127 10.156942 38.57585 10.156942 L 45.171578 10.156942 C 45.369285 10.156942 45.528549 10.222844 45.660354 10.354649 C 45.797651 10.480962 45.869045 10.645718 45.869045 10.837933 L 45.869045 49.31942 C 45.869045 49.506143 45.797651 49.665408 45.660354 49.802704 C 45.528549 49.934509 45.369285 50.000411 45.171578 50.000411 L 38.240846 50.000411 C 37.861908 50.000411 37.592807 49.830163 37.433543 49.484176 L 26.565145 26.319496 C 26.493751 26.209659 26.411373 26.15474 26.328995 26.15474 C 26.2576 26.15474 26.219157 26.226134 26.219157 26.374415 L 26.290552 49.31942 C 26.290552 49.506143 26.219157 49.665408 26.081861 49.802704 C 25.950056 49.934509 25.790792 50.000411 25.593085 50.000411 L 18.991865 50.000411 C 18.810634 50.000411 18.645878 49.934509 18.508581 49.802704 C 18.376776 49.665408 18.310874 49.506143 18.310874 49.31942 L 18.310874 10.837933 C 18.310874 10.645718 18.376776 10.480962 18.508581 10.354649 C 18.645878 10.222844 18.810634 10.156942 18.991865 10.156942 L 25.884154 10.156942 C 26.263092 10.156942 26.532194 10.332682 26.680474 10.673177 L 37.559855 33.837857 C 37.63125 33.947694 37.708136 34.002613 37.77953 34.002613 C 37.856416 34.002613 37.894859 33.931219 37.894859 33.782939 Z M 76.134704 16.357256 C 76.134704 16.549471 76.068802 16.714227 75.926013 16.84054 C 75.7997 16.972345 75.640436 17.038247 75.453713 17.038247 L 60.197316 17.038247 C 60.010593 17.038247 59.917231 17.1371 59.917231 17.329316 L 59.917231 26.209659 C 59.917231 26.396382 60.010593 26.489744 60.197316 26.489744 L 69.703732 26.489744 C 69.895947 26.489744 70.060703 26.555646 70.187016 26.692943 C 70.318821 26.824748 70.384723 26.989503 70.384723 27.181719 L 70.384723 32.701041 C 70.384723 32.882273 70.318821 33.047029 70.187016 33.184325 C 70.060703 33.31613 69.895947 33.382032 69.703732 33.382032 L 60.197316 33.382032 C 60.010593 33.382032 59.917231 33.469902 59.917231 33.656626 L 59.917231 42.828038 C 59.917231 43.014761 60.010593 43.108123 60.197316 43.108123 L 75.453713 43.108123 C 75.640436 43.108123 75.7997 43.179517 75.926013 43.316813 C 76.068802 43.443126 76.134704 43.607882 76.134704 43.800097 L 76.134704 49.31942 C 76.134704 49.506143 76.068802 49.665408 75.926013 49.802704 C 75.7997 49.934509 75.640436 50.000411 75.453713 50.000411 L 52.569118 50.000411 C 52.382395 50.000411 52.223131 49.934509 52.080342 49.802704 C 51.954029 49.665408 51.888127 49.506143 51.888127 49.31942 L 51.888127 10.837933 C 51.888127 10.645718 51.954029 10.480962 52.080342 10.354649 C 52.223131 10.222844 52.382395 10.156942 52.569118 10.156942 L 75.453713 10.156942 C 75.640436 10.156942 75.7997 10.222844 75.926013 10.354649 C 76.068802 10.480962 76.134704 10.645718 76.134704 10.837933 Z M 88.875827 50.000411 C 88.491397 50.000411 88.249755 49.808196 88.134426 49.429257 L 79.199164 10.892852 L 79.199164 10.673177 C 79.199164 10.332682 79.407855 10.156942 79.825236 10.156942 L 86.832854 10.156942 C 87.283187 10.156942 87.530321 10.365633 87.568764 10.783014 L 91.901844 32.640631 C 91.940287 32.75596 91.995206 32.810879 92.072092 32.810879 C 92.143486 32.810879 92.198405 32.75596 92.236848 32.640631 L 96.388696 10.783014 C 96.427139 10.365633 96.674273 10.156942 97.130098 10.156942 L 103.451233 10.156942 C 103.868614 10.156942 104.115748 10.365633 104.187142 10.783014 L 108.745389 32.640631 C 108.783832 32.75596 108.838751 32.810879 108.910145 32.810879 C 108.987031 32.810879 109.047442 32.75596 109.091377 32.640631 L 113.177323 10.783014 C 113.22675 10.365633 113.473884 10.156942 113.929708 10.156942 L 120.640765 10.156942 C 121.129541 10.156942 121.321756 10.404076 121.211919 10.892852 L 112.90273 49.374339 C 112.825844 49.79172 112.57871 50.000411 112.161328 50.000411 L 105.730356 50.000411 C 105.312974 50.000411 105.065841 49.79172 104.994446 49.374339 L 100.381281 26.489744 C 100.342838 26.374415 100.282428 26.319496 100.20005 26.319496 C 100.123164 26.319496 100.068245 26.374415 100.029802 26.489744 L 95.877953 49.374339 C 95.83951 49.79172 95.592376 50.000411 95.142043 50.000411 Z M 137.473327 50.456236 C 134.864692 50.456236 132.569093 49.994919 130.597514 49.066794 C 128.620443 48.133178 127.093705 46.820622 126.011808 45.13462 C 124.924419 43.448618 124.386216 41.504498 124.386216 39.302261 L 124.386216 37.813966 C 124.386216 37.627243 124.446627 37.467979 124.578431 37.341666 C 124.715728 37.198878 124.880484 37.132975 125.067207 37.132975 L 131.608017 37.132975 C 131.805724 37.132975 131.964988 37.198878 132.096792 37.341666 C 132.234089 37.467979 132.305483 37.627243 132.305483 37.813966 L 132.305483 38.895863 C 132.305483 40.230386 132.794259 41.345234 133.777303 42.229424 C 134.77133 43.119106 136.100361 43.563947 137.764395 43.563947 C 139.241707 43.563947 140.367539 43.185009 141.141891 42.427132 C 141.921736 41.669254 142.311658 40.697195 142.311658 39.521936 C 142.311658 38.64873 142.064525 37.907328 141.575749 37.286747 C 141.081481 36.655183 140.389506 36.067554 139.488841 35.518367 C 138.599159 34.963689 137.231685 34.211304 135.375435 33.266703 C 133.096312 32.129888 131.23457 31.069958 129.79021 30.086914 C 128.351342 29.092887 127.121164 27.818775 126.094186 26.264577 C 125.067207 24.71038 124.550972 22.826671 124.550972 20.624434 C 124.550972 18.427688 125.072699 16.505536 126.121645 14.857977 C 127.170591 13.204926 128.636918 11.936306 130.526119 11.046624 C 132.426304 10.15145 134.590098 9.701117 137.017502 9.701117 C 139.565727 9.701117 141.822883 10.184401 143.799953 11.161953 C 145.771532 12.123029 147.303762 13.479519 148.396643 15.231424 C 149.500508 16.972345 150.049694 18.982367 150.049694 21.26149 L 150.049694 22.387322 C 150.049694 22.579537 149.983792 22.749785 149.857479 22.887081 C 149.725674 23.018886 149.56641 23.084789 149.368703 23.084789 L 142.822402 23.084789 C 142.64117 23.084789 142.476414 23.018886 142.339118 22.887081 C 142.207313 22.749785 142.141411 22.579537 142.141411 22.387322 L 142.141411 21.371327 C 142.141411 20.003853 141.66911 18.861546 140.713526 17.955388 C 139.768926 17.049231 138.478338 16.593406 136.847254 16.593406 C 135.485272 16.593406 134.419851 16.944885 133.640006 17.647844 C 132.860161 18.34531 132.470239 19.31737 132.470239 20.569515 C 132.470239 21.448213 132.700897 22.211582 133.15123 22.859622 C 133.607055 23.496678 134.304522 24.117259 135.249122 24.71038 C 136.204706 25.292518 137.649066 26.055887 139.587694 27.000487 L 140.779428 27.681478 C 142.976174 28.89518 144.689635 29.949618 145.925305 30.850283 C 147.166466 31.739965 148.204428 32.871289 149.039191 34.238763 C 149.868462 35.600745 150.285844 37.253796 150.285844 39.186932 C 150.285844 42.635822 149.121569 45.376262 146.787527 47.413744 C 144.453485 49.445733 141.34509 50.456236 137.473327 50.456236 Z M 137.473327 50.456236 " stroke="#000000" stroke-width="1.352052" stroke-opacity="1" stroke-miterlimit="4"/><g clip-path="url(#f3bf41c893)"><path fill="#231815" d="M 176.210938 53.210938 C 175.453125 53.210938 174.722656 52.796875 174.050781 52.054688 L 174.035156 52.03125 C 173.859375 51.808594 173.703125 51.609375 173.554688 51.433594 L 173.527344 51.398438 C 172.5625 50.023438 171.75 47.945312 171.1875 45.441406 L 177.261719 44.367188 C 179.113281 44.300781 180.113281 40.796875 180.113281 37.5 C 180.113281 34.195312 179.109375 30.683594 177.246094 30.632812 C 177.199219 30.628906 172.894531 30.207031 171.121094 29.859375 C 172.140625 25.085938 174.0625 21.789062 176.210938 21.789062 C 179.386719 21.789062 182.066406 28.984375 182.066406 37.5 C 182.066406 46.015625 179.386719 53.210938 176.210938 53.210938 Z M 174.304688 37.5 C 174.304688 40.023438 174.890625 42.667969 175.996094 43.800781 L 171.027344 44.679688 C 170.601562 42.511719 170.355469 40.066406 170.355469 37.5 C 170.355469 35.050781 170.578125 32.714844 170.96875 30.621094 C 172.195312 30.859375 174.492188 31.125 175.921875 31.277344 C 174.863281 32.449219 174.304688 35.03125 174.304688 37.5 Z M 177.207031 43.589844 C 176.207031 43.589844 175.085938 41.089844 175.085938 37.5 C 175.085938 33.910156 176.207031 31.410156 177.207031 31.410156 C 178.214844 31.410156 179.332031 33.910156 179.332031 37.5 C 179.332031 41.089844 178.214844 43.589844 177.207031 43.589844 Z M 161.578125 43.535156 L 161.578125 43.523438 L 161.265625 43.417969 C 161.082031 43.359375 160.898438 43.304688 160.714844 43.246094 C 160.199219 43.09375 159.691406 42.953125 159.199219 42.832031 C 158.421875 42.636719 157.625 42.460938 156.820312 42.3125 L 156.820312 42.320312 C 155.769531 42.128906 154.714844 41.984375 153.6875 41.886719 C 153.394531 41.859375 153.101562 41.835938 152.808594 41.816406 C 151.347656 37.832031 152.460938 34.089844 152.800781 33.132812 C 156.632812 33.058594 165.035156 32.109375 171.488281 25.808594 C 170.300781 28.773438 169.574219 32.886719 169.574219 37.5 C 169.574219 42.144531 170.308594 46.28125 171.511719 49.25 C 168.847656 46.753906 165.519531 44.839844 161.578125 43.535156 Z M 159.476562 45.582031 L 159.476562 43.730469 C 159.808594 43.816406 160.140625 43.910156 160.480469 44.011719 C 160.546875 44.03125 160.609375 44.050781 160.675781 44.070312 C 160.496094 44.789062 160.039062 45.351562 159.476562 45.582031 Z M 156.375 53.222656 C 155.746094 53.222656 155.15625 52.980469 154.714844 52.539062 C 154.273438 52.101562 154.027344 51.519531 154.027344 50.894531 L 154.027344 42.703125 C 154.902344 42.796875 155.789062 42.925781 156.675781 43.085938 L 156.671875 43.097656 C 157.363281 43.226562 158.050781 43.375 158.71875 43.539062 L 158.71875 50.894531 C 158.71875 52.179688 157.667969 53.222656 156.375 53.222656 Z M 150.820312 41.746094 C 150.773438 41.746094 150.730469 41.746094 150.6875 41.746094 C 149.257812 37.949219 150.367188 34.070312 150.695312 33.089844 C 150.730469 33.089844 150.765625 33.089844 150.804688 33.089844 C 150.898438 33.097656 151.320312 33.128906 151.996094 33.136719 C 151.566406 34.4375 150.6875 37.925781 151.988281 41.769531 C 151.257812 41.738281 150.835938 41.746094 150.820312 41.746094 Z M 146.558594 37.417969 C 146.558594 36.257812 147.003906 35.167969 147.8125 34.355469 C 148.375 33.78125 149.089844 33.386719 149.859375 33.203125 C 149.4375 34.585938 148.640625 38.054688 149.84375 41.625 C 147.960938 41.171875 146.558594 39.4375 146.558594 37.417969 Z M 176.210938 21.011719 C 175.140625 21.011719 174.136719 21.613281 173.246094 22.691406 L 173.222656 22.667969 C 166.707031 31.289062 156.585938 32.316406 152.535156 32.359375 C 151.492188 32.371094 150.863281 32.3125 150.859375 32.3125 L 150.820312 32.3125 C 150.664062 32.3125 150.523438 32.316406 150.390625 32.332031 C 149.207031 32.429688 148.09375 32.957031 147.25 33.808594 C 146.300781 34.769531 145.777344 36.050781 145.777344 37.417969 C 145.777344 40.050781 147.804688 42.285156 150.386719 42.503906 C 150.519531 42.519531 150.660156 42.519531 150.832031 42.527344 C 150.835938 42.523438 151.46875 42.511719 152.515625 42.574219 C 152.765625 42.589844 153.019531 42.613281 153.273438 42.632812 L 153.273438 50.894531 C 153.273438 51.71875 153.59375 52.492188 154.179688 53.074219 C 154.765625 53.65625 155.542969 53.976562 156.375 53.976562 C 158.085938 53.976562 159.476562 52.59375 159.476562 50.894531 L 159.476562 46.425781 C 160.414062 46.191406 161.160156 45.386719 161.445312 44.3125 C 166.246094 45.917969 170.097656 48.457031 172.898438 51.859375 L 172.941406 51.914062 C 172.945312 51.921875 172.949219 51.925781 172.953125 51.929688 C 173.09375 52.121094 173.238281 52.304688 173.382812 52.46875 C 173.394531 52.480469 173.402344 52.492188 173.410156 52.503906 L 173.414062 52.503906 C 174.257812 53.457031 175.207031 53.988281 176.210938 53.988281 C 179.933594 53.988281 182.851562 46.746094 182.851562 37.5 C 182.851562 28.253906 179.933594 21.011719 176.210938 21.011719 " fill-opacity="1" fill-rule="nonzero"/></g><g clip-path="url(#d313974b93)"><path fill="#231815" d="M 195.609375 37.816406 L 187.09375 37.816406 C 186.875 37.816406 186.703125 37.644531 186.703125 37.429688 C 186.703125 37.214844 186.875 37.039062 187.09375 37.039062 L 195.609375 37.039062 C 195.828125 37.039062 196 37.214844 196 37.429688 C 196 37.644531 195.828125 37.816406 195.609375 37.816406 " fill-opacity="1" fill-rule="nonzero"/></g><path fill="#231815" d="M 185.640625 30.535156 C 185.484375 30.535156 185.339844 30.441406 185.277344 30.289062 C 185.195312 30.089844 185.292969 29.863281 185.492188 29.785156 L 193.390625 26.613281 C 193.589844 26.535156 193.820312 26.628906 193.898438 26.828125 C 193.980469 27.027344 193.882812 27.253906 193.683594 27.335938 L 185.785156 30.503906 C 185.738281 30.523438 185.6875 30.535156 185.640625 30.535156 " fill-opacity="1" fill-rule="nonzero"/><path fill="#231815" d="M 193.589844 48.28125 C 193.542969 48.28125 193.492188 48.273438 193.445312 48.253906 L 185.546875 45.085938 C 185.347656 45.003906 185.25 44.777344 185.332031 44.578125 C 185.410156 44.378906 185.636719 44.28125 185.839844 44.363281 L 193.738281 47.53125 C 193.9375 47.613281 194.035156 47.839844 193.953125 48.039062 C 193.890625 48.191406 193.746094 48.28125 193.589844 48.28125 " fill-opacity="1" fill-rule="nonzero"/></svg>