<svg xmlns="http://www.w3.org/2000/svg" xmlns:xlink="http://www.w3.org/1999/xlink" width="75" zoomAndPan="magnify" viewBox="0 0 56.25 56.249997" height="75" preserveAspectRatio="xMidYMid meet" version="1.0"><defs><g/><clipPath id="e369c5b424"><path d="M 2.988281 2.988281 L 52.523438 2.988281 L 52.523438 52.523438 L 2.988281 52.523438 Z M 2.988281 2.988281 " clip-rule="nonzero"/></clipPath><clipPath id="98996d6894"><path d="M 10.726562 2.988281 L 44.78125 2.988281 C 49.058594 2.988281 52.523438 6.453125 52.523438 10.726562 L 52.523438 44.78125 C 52.523438 49.058594 49.058594 52.523438 44.78125 52.523438 L 10.726562 52.523438 C 6.453125 52.523438 2.988281 49.058594 2.988281 44.78125 L 2.988281 10.726562 C 2.988281 6.453125 6.453125 2.988281 10.726562 2.988281 Z M 10.726562 2.988281 " clip-rule="nonzero"/></clipPath></defs><g clip-path="url(#e369c5b424)"><g clip-path="url(#98996d6894)"><path fill="#ff5757" d="M 2.988281 2.988281 L 52.523438 2.988281 L 52.523438 52.523438 L 2.988281 52.523438 Z M 2.988281 2.988281 " fill-opacity="1" fill-rule="nonzero"/></g></g><path stroke-linecap="butt" transform="matrix(0.740132, 0, 0, 0.740132, 11.247174, 0.859533)" fill="none" stroke-linejoin="miter" d="M 12.570208 10.882566 C 12.75493 10.882566 12.84993 10.977566 12.84993 11.172844 L 12.84993 11.405066 C 12.84993 11.589788 12.75493 11.684788 12.570208 11.684788 L 7.704096 11.684788 C 7.630207 11.684788 7.593263 11.721733 7.593263 11.800899 L 7.593263 30.711179 C 7.593263 30.906457 7.498263 31.001457 7.308263 31.001457 L 7.017985 31.001457 C 6.827985 31.001457 6.732985 30.906457 6.732985 30.711179 L 6.732985 11.800899 C 6.732985 11.721733 6.696041 11.684788 6.616874 11.684788 L 2.046318 11.684788 C 1.85104 11.684788 1.75604 11.589788 1.75604 11.405066 L 1.75604 11.172844 C 1.75604 10.977566 1.85104 10.882566 2.046318 10.882566 Z M 21.822153 31.233679 C 20.76132 31.233679 19.821875 31.001457 18.998542 30.54229 C 18.175208 30.083123 17.531319 29.439234 17.072153 28.615901 C 16.612986 27.792568 16.380764 26.842567 16.380764 25.771178 L 16.380764 16.139233 C 16.380764 15.067844 16.612986 14.117844 17.072153 13.283955 C 17.531319 12.450066 18.175208 11.806177 18.998542 11.34701 C 19.821875 10.882566 20.76132 10.650344 21.822153 10.650344 C 22.893542 10.650344 23.843542 10.882566 24.677431 11.34701 C 25.51132 11.806177 26.155209 12.450066 26.614376 13.283955 C 27.073542 14.117844 27.305765 15.067844 27.305765 16.139233 L 27.305765 25.771178 C 27.305765 26.842567 27.073542 27.792568 26.614376 28.615901 C 26.155209 29.439234 25.51132 30.083123 24.677431 30.54229 C 23.843542 31.001457 22.893542 31.233679 21.822153 31.233679 Z M 21.822153 30.426179 C 23.194375 30.426179 24.307987 29.998679 25.162987 29.148957 C 26.017987 28.293956 26.445487 27.180345 26.445487 25.802845 L 26.445487 16.112844 C 26.445487 14.714233 26.017987 13.584788 25.162987 12.735066 C 24.307987 11.885344 23.194375 11.457844 21.822153 11.457844 C 20.460486 11.457844 19.357431 11.885344 18.507708 12.735066 C 17.668542 13.584788 17.246319 14.714233 17.246319 16.112844 L 17.246319 25.802845 C 17.246319 27.180345 17.668542 28.293956 18.507708 29.148957 C 19.357431 29.998679 20.460486 30.426179 21.822153 30.426179 Z M 38.225488 10.829788 C 39.639933 10.829788 40.779933 11.315344 41.640211 12.291733 C 42.505766 13.268122 42.938544 14.540066 42.938544 16.112844 C 42.938544 17.680344 42.505766 18.947011 41.640211 19.907567 C 40.779933 20.868122 39.639933 21.343122 38.225488 21.343122 L 33.248543 21.343122 C 33.174654 21.343122 33.13771 21.380067 33.13771 21.459234 L 33.13771 30.711179 C 33.13771 30.906457 33.04271 31.001457 32.847432 31.001457 L 32.562432 31.001457 C 32.372432 31.001457 32.272154 30.906457 32.272154 30.711179 L 32.272154 11.114788 C 32.272154 10.924788 32.372432 10.829788 32.562432 10.829788 Z M 38.193821 20.567289 C 39.365488 20.567289 40.304933 20.1609 41.012155 19.342845 C 41.719377 18.530067 42.078266 17.4534 42.078266 16.112844 C 42.078266 14.772289 41.719377 13.690344 41.012155 12.867011 C 40.304933 12.043677 39.365488 11.626733 38.193821 11.626733 L 33.248543 11.626733 C 33.174654 11.626733 33.13771 11.668955 33.13771 11.748122 L 33.13771 20.456456 C 33.13771 20.530345 33.174654 20.567289 33.248543 20.567289 Z M 38.193821 20.567289 " stroke="#ffffff" stroke-width="1.077986" stroke-opacity="1" stroke-miterlimit="4"/><g fill="#ffffff" fill-opacity="1"><g transform="translate(22.26177, 43.735902)"><g><path d="M 10.140625 -7.53125 C 10.453125 -6.8125 10.609375 -5.9375 10.609375 -4.90625 C 10.609375 -4.164062 10.515625 -3.515625 10.328125 -2.953125 C 10.015625 -1.953125 9.441406 -1.179688 8.609375 -0.640625 C 7.785156 -0.109375 6.757812 0.15625 5.53125 0.15625 C 4.289062 0.15625 3.242188 -0.128906 2.390625 -0.703125 C 1.546875 -1.285156 0.988281 -2.125 0.71875 -3.21875 C 0.601562 -3.5625 0.53125 -3.867188 0.5 -4.140625 L 0.5 -4.1875 C 0.5 -4.394531 0.609375 -4.5 0.828125 -4.5 L 4.3125 -4.5 C 4.488281 -4.5 4.597656 -4.398438 4.640625 -4.203125 C 4.660156 -4.148438 4.695312 -4.066406 4.75 -3.953125 C 4.894531 -3.546875 5.15625 -3.34375 5.53125 -3.34375 C 5.71875 -3.34375 5.882812 -3.394531 6.03125 -3.5 C 6.175781 -3.613281 6.28125 -3.769531 6.34375 -3.96875 C 6.4375 -4.25 6.484375 -4.546875 6.484375 -4.859375 C 6.484375 -5.234375 6.4375 -5.53125 6.34375 -5.75 C 6.175781 -6.125 5.90625 -6.3125 5.53125 -6.3125 C 5.1875 -6.3125 4.9375 -6.191406 4.78125 -5.953125 C 4.65625 -5.785156 4.523438 -5.703125 4.390625 -5.703125 L 0.828125 -5.703125 C 0.722656 -5.703125 0.640625 -5.726562 0.578125 -5.78125 C 0.523438 -5.84375 0.5 -5.925781 0.5 -6.03125 L 0.5 -14.859375 C 0.5 -14.960938 0.523438 -15.039062 0.578125 -15.09375 C 0.640625 -15.15625 0.722656 -15.1875 0.828125 -15.1875 L 10.03125 -15.1875 C 10.125 -15.1875 10.203125 -15.15625 10.265625 -15.09375 C 10.328125 -15.039062 10.359375 -14.960938 10.359375 -14.859375 L 10.359375 -12.03125 C 10.359375 -11.925781 10.328125 -11.84375 10.265625 -11.78125 C 10.203125 -11.726562 10.125 -11.703125 10.03125 -11.703125 L 4.703125 -11.703125 C 4.617188 -11.703125 4.578125 -11.65625 4.578125 -11.5625 L 4.578125 -9.4375 C 4.578125 -9.394531 4.59375 -9.363281 4.625 -9.34375 C 4.65625 -9.320312 4.691406 -9.328125 4.734375 -9.359375 C 5.265625 -9.671875 5.847656 -9.828125 6.484375 -9.828125 C 7.367188 -9.828125 8.117188 -9.625 8.734375 -9.21875 C 9.347656 -8.8125 9.816406 -8.25 10.140625 -7.53125 Z M 10.140625 -7.53125 "/></g></g></g></svg>